<?xml version="1.0" standalone="no"?>
<!DOCTYPE svg PUBLIC "-//W3C//DTD SVG 20010904//EN"
 "http://www.w3.org/TR/2001/REC-SVG-20010904/DTD/svg10.dtd">
<svg version="1.0" xmlns="http://www.w3.org/2000/svg"
 width="544.000000pt" height="116.000000pt" viewBox="0 0 544.000000 116.000000"
 preserveAspectRatio="xMidYMid meet">

<g transform="translate(0.000000,116.000000) scale(0.100000,-0.100000)"
fill="#cce00e" stroke="none">
<path d="M542 1149 c-29 -6 -50 -15 -47 -20 4 -5 12 -9 20 -9 23 0 55 -50 55
-87 0 -53 -36 -83 -100 -83 -88 0 -261 44 -455 116 -11 4 -2 -6 20 -23 71 -52
207 -186 267 -261 70 -88 76 -125 29 -173 -36 -35 -77 -38 -115 -8 l-27 21 7
-28 c13 -53 59 -137 101 -183 l41 -46 -5 41 c-4 33 -1 45 18 67 58 66 131 37
173 -69 34 -85 96 -323 96 -369 0 -19 5 -35 10 -35 6 0 10 16 10 35 0 46 62
284 96 369 42 106 115 135 173 69 19 -22 22 -34 18 -67 l-5 -41 41 46 c42 46
88 130 101 183 l7 28 -27 -21 c-38 -30 -79 -27 -115 8 -47 48 -41 85 29 173
60 75 196 209 267 261 22 17 31 27 20 23 -194 -72 -367 -116 -455 -116 -41 0
-56 5 -75 25 -45 44 -27 123 34 147 l26 11 -30 8 c-51 15 -147 18 -203 8z
m-15 -319 c98 -9 285 0 327 16 12 5 -2 -21 -38 -67 -55 -72 -176 -295 -176
-324 0 -8 -4 -15 -10 -15 -5 0 -10 7 -10 15 0 29 -121 252 -176 323 -37 50
-50 72 -37 68 11 -3 65 -10 120 -16z"/>
<path d="M1340 625 l0 -195 35 0 35 0 0 195 0 195 -35 0 -35 0 0 -195z"/>
<path d="M1565 740 c-53 -53 -87 -80 -102 -80 -20 0 -23 -5 -23 -35 0 -32 3
-35 28 -35 21 0 46 -18 107 -80 78 -79 80 -80 130 -80 l50 0 -100 100 -100
101 97 94 97 95 -52 0 c-52 0 -53 0 -132 -80z"/>
<path d="M2640 775 l0 -45 -45 0 c-45 0 -45 0 -45 -35 0 -35 0 -35 45 -35 l45
0 0 -115 0 -115 35 0 35 0 0 115 0 115 60 0 60 0 0 35 0 35 -60 0 -60 0 0 45
c0 45 0 45 -35 45 -35 0 -35 0 -35 -45z"/>
<path d="M3475 794 c-24 -26 -25 -32 -25 -165 0 -131 1 -139 24 -166 24 -28
24 -28 171 -31 211 -5 196 -14 193 116 l-3 107 -127 3 -128 3 0 -36 0 -35 95
0 95 0 0 -45 0 -46 -122 3 -123 3 -3 121 c-3 145 -19 134 181 134 l137 0 0 30
0 30 -170 0 -171 0 -24 -26z"/>
<path d="M1780 620 c0 -63 5 -120 12 -135 18 -40 57 -55 143 -55 l75 0 0 35 0
35 -68 0 c-40 0 -73 5 -80 12 -8 8 -12 48 -12 115 l0 103 -35 0 -35 0 0 -110z"/>
<path d="M2038 553 l-3 -178 -77 -3 -78 -3 0 -34 0 -35 75 0 c81 0 127 16 145
49 6 12 10 96 10 200 l0 181 -35 0 -35 0 -2 -177z"/>
<path d="M2218 715 c-40 -23 -48 -45 -48 -139 0 -75 3 -88 24 -113 23 -27 29
-28 124 -31 157 -6 188 24 180 169 -3 59 -8 73 -31 97 -26 25 -34 27 -125 30
-72 2 -104 -2 -124 -13z m200 -67 c17 -17 16 -123 -2 -137 -9 -8 -43 -11 -93
-9 l-78 3 -3 69 c-2 49 1 72 10 77 20 13 152 11 166 -3z"/>
<path d="M2928 715 c-40 -23 -48 -45 -48 -139 0 -75 3 -88 24 -113 23 -27 29
-28 124 -31 157 -6 188 24 180 169 -3 59 -8 73 -31 97 -26 25 -34 27 -125 30
-72 2 -104 -2 -124 -13z m200 -67 c17 -17 16 -123 -2 -137 -9 -8 -43 -11 -93
-9 l-78 3 -3 69 c-2 49 1 72 10 77 20 13 152 11 166 -3z"/>
<path d="M3970 695 l0 -34 88 -3 87 -3 0 -75 0 -75 -86 -3 c-73 -2 -88 0 -93
14 -12 31 13 44 85 44 l69 0 0 36 0 36 -86 -3 c-79 -4 -87 -6 -110 -32 -17
-20 -24 -40 -24 -72 0 -36 5 -47 31 -69 28 -24 38 -26 131 -26 97 0 100 1 129
29 28 28 29 34 29 116 0 47 -5 95 -10 106 -19 35 -64 49 -155 49 l-85 0 0 -35z"/>
<path d="M4296 714 c-13 -12 -16 -41 -16 -150 l0 -134 35 0 34 0 3 113 3 112
48 3 c72 5 77 -3 77 -124 l0 -104 35 0 35 0 0 115 0 115 29 0 c60 0 61 -2 61
-121 l0 -109 35 0 35 0 0 115 c0 130 -9 156 -62 174 -39 14 -138 14 -138 1 0
-6 -9 -6 -26 0 -42 17 -170 12 -188 -6z"/>
<path d="M4818 715 c-40 -23 -48 -45 -48 -139 0 -75 3 -88 24 -113 23 -26 31
-28 110 -32 l86 -3 0 36 0 36 -70 0 c-79 0 -90 9 -90 80 0 72 10 80 99 80 82
0 107 -12 95 -44 -5 -13 -21 -16 -80 -16 l-74 0 0 -35 0 -35 81 0 c76 0 82 2
110 29 38 39 40 97 5 138 -23 27 -29 28 -123 31 -73 2 -105 -2 -125 -13z"/>
<path d="M5185 720 c-51 -20 -66 -93 -27 -133 19 -18 37 -23 110 -27 85 -5 87
-6 87 -30 0 -25 0 -25 -107 -28 l-108 -3 0 -34 0 -35 105 0 c146 0 185 22 185
104 0 22 -9 45 -24 63 -22 26 -31 28 -113 33 -49 3 -88 9 -88 15 0 6 41 11 98
13 l97 3 0 34 0 35 -97 -1 c-54 0 -107 -4 -118 -9z"/>
</g>
</svg>
